<?xml version="1.0" encoding="utf-8"?>
<!-- Generator: Adobe Illustrator 27.5.0, SVG Export Plug-In . SVG Version: 6.00 Build 0)  -->
<svg version="1.1" id="Layer_1" xmlns="http://www.w3.org/2000/svg" xmlns:xlink="http://www.w3.org/1999/xlink" x="0px" y="0px"
	 viewBox="0 0 1422 800" style="enable-background:new 0 0 1422 800;" xml:space="preserve">
<g>
	<defs>
		<rect id="SVGID_1_" width="1422" height="800"/>
	</defs>
	<clipPath id="SVGID_00000073682137031360354660000015578510450758144397_">
		<use xlink:href="#SVGID_1_"  style="overflow:visible;"/>
	</clipPath>
	<g style="clip-path:url(#SVGID_00000073682137031360354660000015578510450758144397_);">
		
			<rect x="59" y="-29.698" transform="matrix(0.7071 -0.7071 0.7071 0.7071 16.8665 42.7193)" style="fill:#231F20;" width="2" height="61.397"/>
		
			<rect x="143" y="-29.698" transform="matrix(0.7071 -0.7071 0.7071 0.7071 41.4695 102.1163)" style="fill:#231F20;" width="2" height="61.397"/>
		<polygon style="fill:#231F20;" points="333,23.414 334.414,22 375,-18.586 415.586,22 417,23.414 457.586,64 459,65.414 
			501,107.414 502.414,106 460.414,64 501,23.414 541.586,64 543,65.414 544.414,64 585,23.414 627,65.414 628.414,64 586.414,22 
			627,-18.586 669,23.414 670.414,22 628.414,-20 627,-21.414 625.586,-20 585,20.586 543,-21.414 541.586,-20 583.586,22 
			543,62.586 502.414,22 501,20.586 459,-21.414 457.586,-20 499.586,22 459,62.586 418.414,22 417,20.586 376.414,-20 375,-21.414 
			373.586,-20 333,20.586 291,-21.414 289.586,-20 331.586,22 		"/>
		
			<rect x="437" y="-29.698" transform="matrix(0.7071 -0.7071 0.7071 0.7071 127.5801 310.0057)" style="fill:#231F20;" width="2" height="61.397"/>
		
			<rect x="521" y="-29.698" transform="matrix(0.7071 -0.7071 0.7071 0.7071 152.1832 369.4026)" style="fill:#231F20;" width="2" height="61.397"/>
		
			<rect x="1403" y="-29.698" transform="matrix(0.7071 -0.7071 0.7071 0.7071 410.515 993.0708)" style="fill:#231F20;" width="2" height="61.397"/>
		<path style="fill:#231F20;" d="M249,23.414L289.586,64L291,65.414L331.586,106L291,146.586L250.414,106L249,104.586l-42-42
			L205.586,64l42,42L207,146.586L205.586,148l1.414,1.414L247.586,190l1.414,1.414L289.586,232l1.414,1.414l42,42l1.414-1.414
			l-42-42L333,191.414l1.414-1.414L375,149.414L415.586,190l1.414,1.414l1.414-1.414l42-42L459,146.586l-42,42L376.414,148
			L375,146.586L334.414,106l42-42L375,62.586l-42,42L292.414,64L291,62.586L250.414,22L249,20.586l-42-42L205.586-20l42,42
			L249,23.414z M373.586,148L333,188.586L331.586,190L291,230.586L250.414,190L249,188.586L208.414,148L249,107.414L289.586,148
			l1.414,1.414l1.414-1.414L333,107.414L373.586,148z"/>
		<polygon style="fill:#231F20;" points="751.586,22 709.586,64 711,65.414 753,23.414 754.414,22 796.414,-20 795,-21.414 
			753,20.586 		"/>
		<path style="fill:#231F20;" d="M919.586,22L879,62.586L838.414,22L837,20.586L835.586,22L795,62.586L793.586,64L753,104.586
			L751.586,106L711,146.586l-42-42L667.586,106l42,42l-42,42l1.414,1.414l42-42L751.586,190L711,230.586L709.586,232l1.414,1.414
			L751.586,274l1.414,1.414L793.586,316l1.414,1.414l1.414-1.414L837,275.414l42,42l1.414-1.414l-42-42L837,272.586L835.586,274
			L795,314.586L754.414,274L753,272.586L712.414,232L753,191.414l42,42l1.414-1.414l-42-42L753,188.586L712.414,148L753,107.414
			l1.414-1.414L795,65.414L835.586,106l1.414,1.414L877.586,148l1.414,1.414L919.586,190l1.414,1.414L961.586,232L921,272.586
			L919.586,274l1.414,1.414L961.586,316l-42,42l1.414,1.414l42-42L1003.586,358l1.414,1.414l1.414-1.414L1047,317.414l1.414-1.414
			L1089,275.414L1129.586,316l-42,42l1.414,1.414l42-42l1.414-1.414L1173,275.414L1213.586,316L1173,356.586l-1.414,1.414l-42,42
			l1.414,1.414l42-42L1213.586,400l1.414,1.414l1.414-1.414L1257,359.414l1.414-1.414l-1.414-1.414L1216.414,316l-1.414-1.414
			L1174.414,274l-1.414-1.414l-1.414,1.414L1131,314.586L1090.414,274l-1.414-1.414l-1.414,1.414L1047,314.586L1006.414,274
			L1047,233.414l1.414-1.414l-1.414-1.414L1006.414,190l-1.414-1.414L964.414,148L963,146.586L922.414,106L963,65.414l42,42
			l1.414-1.414l-42-42L963,62.586L961.586,64L921,104.586L919.586,106l1.414,1.414L961.586,148L921,188.586L880.414,148L879,146.586
			L838.414,106L837,104.586L796.414,64L837,23.414L877.586,64L879,65.414L880.414,64L921,23.414L922.414,22l42-42L963-21.414l-42,42
			L919.586,22z M1255.586,358L1215,398.586L1174.414,358L1215,317.414L1255.586,358z M963,149.414L1003.586,190l1.414,1.414
			L1045.586,232L1005,272.586l-1.414,1.414l1.414,1.414L1045.586,316L1005,356.586L964.414,316L963,314.586L922.414,274L963,233.414
			l1.414-1.414L963,230.586L922.414,190L963,149.414z"/>
		<path style="fill:#231F20;" d="M1383,20.586L1342.414-20L1341-21.414L1339.586-20L1299,20.586L1258.414-20L1257-21.414
			L1255.586-20L1215,20.586L1174.414-20L1173-21.414L1171.586-20L1131,20.586L1090.414-20L1089-21.414L1087.586-20L1047,20.586
			L1006.414-20L1005-21.414L1003.586-20L963,20.586L961.586,22L921,62.586L919.586,64L879,104.586l-42-42L835.586,64l42,42
			l1.414,1.414l42,42l1.414-1.414l-42-42L921,65.414L922.414,64L963,23.414L1003.586,64l1.414,1.414L1045.586,106L1005,146.586
			l-42-42L961.586,106l42,42l1.414,1.414L1045.586,190l1.414,1.414L1087.586,232l-42,42l1.414,1.414l42-42L1129.586,274l1.414,1.414
			l1.414-1.414L1173,233.414L1213.586,274l1.414,1.414L1255.586,316l1.414,1.414L1297.586,358L1257,398.586l-1.414,1.414
			L1215,440.586L1174.414,400l-1.414-1.414l-1.414,1.414L1131,440.586L1090.414,400L1131,359.414l1.414-1.414l42-42l-1.414-1.414
			l-42,42l-1.414,1.414L1089,398.586L1048.414,358l42-42l-1.414-1.414l-42,42l-1.414,1.414L1005,398.586L964.414,358L963,356.586
			L961.586,358L921,398.586L880.414,358L921,317.414l1.414-1.414L921,314.586L880.414,274L921,233.414l1.414-1.414L921,230.586
			L880.414,190L879,188.586L838.414,148L837,146.586L796.414,106L795,104.586L793.586,106L753,146.586L751.586,148l1.414,1.414
			L793.586,190l1.414,1.414L835.586,232L795,272.586l-42-42L751.586,232l42,42l1.414,1.414l1.414-1.414L837,233.414L877.586,274
			l1.414,1.414L919.586,316L879,356.586L838.414,316L837,314.586L835.586,316L795,356.586L754.414,316L753,314.586L712.414,274
			L711,272.586L670.414,232l42-42L711,188.586l-42,42L628.414,190L669,149.414l1.414-1.414L669,146.586L628.414,106L669,65.414
			L709.586,106l1.414,1.414l1.414-1.414L753,65.414L754.414,64L795,23.414L796.414,22L837-18.586L877.586,22L879,23.414L880.414,22
			l42-42L921-21.414l-42,42L838.414-20L837-21.414L835.586-20L795,20.586L793.586,22L753,62.586L751.586,64L711,104.586L670.414,64
			L711,23.414L712.414,22l42-42L753-21.414l-42,42l-42-42L667.586-20l42,42L669,62.586l-42-42L625.586,22l42,42L627,104.586
			L586.414,64L585,62.586L583.586,64L543,104.586l-42-42L499.586,64l42,42L501,146.586L460.414,106L459,104.586L418.414,64
			L417,62.586L376.414,22L375,20.586L373.586,22L333,62.586L292.414,22L291,20.586l-42-42L247.586-20l42,42L291,23.414L331.586,64
			L333,65.414L334.414,64L375,23.414L415.586,64L375,104.586L373.586,106l1.414,1.414L415.586,148l1.414,1.414l1.414-1.414
			L459,107.414L499.586,148L459,188.586L457.586,190L417,230.586L376.414,190L375,188.586L373.586,190L333,230.586L331.586,232
			l1.414,1.414L373.586,274L333,314.586L292.414,274L291,272.586L250.414,232L249,230.586L208.414,190L207,188.586L166.414,148
			L207,107.414l1.414-1.414L207,104.586L166.414,64L207,23.414L247.586,64L249,65.414l42,42l1.414-1.414l-42-42L249,62.586
			L208.414,22L207,20.586l-42-42L163.586-20l42,42L165,62.586L124.414,22L123,20.586l-42-42L79.586-20l42,42L81,62.586L40.414,22
			L39,20.586l-42-42L-4.414-20l42,42l-42,42L-3,65.414l42-42L79.586,64L39,104.586L37.586,106L-3,146.586L-4.414,148L-3,149.414
			L37.586,190L-3,230.586L-4.414,232L-3,233.414L37.586,274L-3,314.586L-4.414,316L-3,317.414L37.586,358L-3,398.586L-4.414,400
			L-3,401.414L37.586,442l-42,42L-3,485.414l42-42L79.586,484L39,524.586L37.586,526L-3,566.586L-4.414,568L-3,569.414L37.586,610
			L39,611.414L79.586,652L81,653.414L121.586,694L81,734.586L79.586,736L39,776.586L-1.586,736L39,695.414L40.414,694L39,692.586
			l-42-42L-4.414,652l42,42L-3,734.586L-4.414,736L-3,737.414L37.586,778L39,779.414L40.414,778L81,737.414L82.414,736L123,695.414
			l1.414-1.414L123,692.586L82.414,652L81,650.586L40.414,610L39,608.586L-1.586,568L39,527.414l42,42L82.414,568l-42-42L81,485.414
			L82.414,484L81,482.586L40.414,442L81,401.414l42,42l1.414-1.414l-42-42L81,398.586L40.414,358L81,317.414l42,42l1.414-1.414
			l-42-42L123,275.414L163.586,316l1.414,1.414L205.586,358l-42,42l1.414,1.414l42-42L247.586,400l1.414,1.414L289.586,442
			l1.414,1.414L331.586,484l1.414,1.414L373.586,526L333,566.586L292.414,526L291,524.586L250.414,484L249,482.586l-42-42
			L205.586,442l42,42L207,524.586L166.414,484L165,482.586L163.586,484L123,524.586L121.586,526l1.414,1.414L163.586,568
			l1.414,1.414L205.586,610l1.414,1.414L247.586,652L207,692.586L166.414,652L165,650.586l-42-42L121.586,610l42,42l1.414,1.414
			L205.586,694l1.414,1.414l42,42l1.414-1.414l-42-42L249,653.414L289.586,694l1.414,1.414l1.414-1.414L333,653.414L373.586,694
			l1.414,1.414L415.586,736L375,776.586L373.586,778l1.414,1.414l42,42l1.414-1.414l-42-42L417,737.414l1.414-1.414L459,695.414
			l42,42l1.414-1.414l-42-42L459,692.586L457.586,694L417,734.586L376.414,694L375,692.586L334.414,652L333,650.586L292.414,610
			L333,569.414l1.414-1.414L375,527.414l42,42l1.414-1.414l-42-42L375,524.586L334.414,484L375,443.414l1.414-1.414L375,440.586
			L334.414,400L333,398.586L292.414,358L291,356.586L250.414,316L249,314.586L247.586,316L207,356.586L166.414,316L165,314.586
			L124.414,274L123,272.586l-42-42L79.586,232l42,42L81,314.586L40.414,274L39,272.586L-1.586,232L39,191.414L40.414,190L39,188.586
			L-1.586,148L39,107.414L40.414,106L81,65.414L121.586,106l1.414,1.414L163.586,148l1.414,1.414L205.586,190l-42,42l1.414,1.414
			l42-42L247.586,232l1.414,1.414L289.586,274l1.414,1.414L331.586,316l1.414,1.414l1.414-1.414L375,275.414l1.414-1.414
			L375,272.586L334.414,232L375,191.414L415.586,232l1.414,1.414L457.586,274L417,314.586L415.586,316l-42,42l1.414,1.414l42-42
			l1.414-1.414L459,275.414l1.414-1.414L501,233.414l1.414-1.414L501,230.586L460.414,190L501,149.414L541.586,190l1.414,1.414
			L583.586,232l1.414,1.414L625.586,274l1.414,1.414L667.586,316l1.414,1.414L709.586,358L669,398.586l-42-42L625.586,358l42,42
			l1.414,1.414l1.414-1.414L711,359.414L751.586,400l1.414,1.414l1.414-1.414L795,359.414L835.586,400L795,440.586L793.586,442
			l1.414,1.414L835.586,484l1.414,1.414L877.586,526L837,566.586L835.586,568L795,608.586L793.586,610l1.414,1.414L835.586,652
			L795,692.586L793.586,694l1.414,1.414L835.586,736l1.414,1.414L877.586,778L837,818.586l-42-42L793.586,778l42,42l1.414,1.414
			l1.414-1.414L879,779.414l42,42l1.414-1.414l-42-42L879,776.586L838.414,736L879,695.414L919.586,736l1.414,1.414l1.414-1.414
			L963,695.414l1.414-1.414L1005,653.414l42,42l1.414-1.414l-42-42l-1.414-1.414l-1.414,1.414L963,692.586L961.586,694L921,734.586
			L880.414,694L921,653.414l1.414-1.414L963,611.414l1.414-1.414L1005,569.414L1045.586,610l1.414,1.414L1087.586,652l1.414,1.414
			L1129.586,694L1089,734.586l-1.414,1.414l1.414,1.414L1129.586,778l-42,42l1.414,1.414l42-42L1171.586,820l1.414,1.414
			l1.414-1.414L1215,779.414l42,42l1.414-1.414l-42-42l-1.414-1.414L1174.414,736l-1.414-1.414l-1.414,1.414L1131,776.586
			L1090.414,736L1131,695.414l1.414-1.414L1173,653.414l1.414-1.414L1215,611.414l42,42l1.414-1.414l-42-42L1257,569.414l42,42
			l1.414-1.414l-42-42l-1.414-1.414L1216.414,526L1257,485.414l42,42l1.414-1.414l-42-42l-1.414-1.414l-1.414,1.414L1215,524.586
			l-1.414,1.414L1173,566.586l-1.414,1.414l1.414,1.414L1213.586,610L1173,650.586l-1.414,1.414L1131,692.586L1090.414,652
			l-1.414-1.414L1048.414,610l-1.414-1.414L1006.414,568l-1.414-1.414l-1.414,1.414L963,608.586L922.414,568L921,566.586
			L880.414,526L879,524.586L838.414,484l42-42L879,440.586l-42,42L796.414,442L837,401.414l1.414-1.414L879,359.414L919.586,400
			l1.414,1.414L961.586,442l1.414,1.414L1003.586,484L963,524.586l-42-42L919.586,484l42,42l1.414,1.414l1.414-1.414L1005,485.414
			L1045.586,526l1.414,1.414L1087.586,568l1.414,1.414l42,42l1.414-1.414l-42-42l-1.414-1.414L1048.414,526L1089,485.414
			l1.414-1.414l-1.414-1.414L1048.414,442L1089,401.414L1129.586,442l1.414,1.414l1.414-1.414L1173,401.414L1213.586,442
			L1173,482.586l-1.414,1.414l-42,42l1.414,1.414l42-42l1.414-1.414L1215,443.414l1.414-1.414L1257,401.414l42,42l1.414-1.414
			l-42-42L1299,359.414l1.414-1.414l-1.414-1.414L1258.414,316l-1.414-1.414L1216.414,274l42-42l-1.414-1.414l-42,42L1174.414,232
			l-1.414-1.414L1132.414,190l-1.414-1.414L1090.414,148L1131,107.414l1.414-1.414l42-42L1173,62.586l-42,42l-42-42L1087.586,64
			l42,42L1089,146.586L1048.414,106l-1.414-1.414L1006.414,64L1005,62.586L964.414,22L1005-18.586L1045.586,22l1.414,1.414
			l1.414-1.414L1089-18.586L1129.586,22l1.414,1.414l1.414-1.414L1173-18.586L1213.586,22l1.414,1.414L1255.586,64L1215,104.586
			l-1.414,1.414l-42,42l1.414,1.414l42-42l1.414-1.414L1257,65.414L1297.586,106l1.414,1.414L1339.586,148L1299,188.586l-42-42
			l-1.414,1.414l42,42l1.414,1.414L1339.586,232l1.414,1.414l1.414-1.414L1383,191.414l42,42l1.414-1.414l-42-42l-1.414-1.414
			L1342.414,148l-1.414-1.414L1300.414,106l-1.414-1.414L1258.414,64L1299,23.414L1339.586,64l1.414,1.414l42,42l1.414-1.414l-42-42
			L1341,62.586L1300.414,22L1341-18.586L1381.586,22l1.414,1.414l42,42l1.414-1.414l-42-42L1383,20.586z M796.414,190L795,188.586
			L754.414,148L795,107.414L835.586,148l1.414,1.414L877.586,190L837,230.586L796.414,190z M838.414,232L879,191.414L919.586,232
			L879,272.586L838.414,232z M417,146.586L376.414,106L417,65.414L457.586,106L417,146.586z M124.414,526L165,485.414L205.586,526
			L165,566.586L124.414,526z M166.414,568L207,527.414L247.586,568L207,608.586L166.414,568z M331.586,652L291,692.586L250.414,652
			L249,650.586L208.414,610L249,569.414L289.586,610l1.414,1.414L331.586,652z M291,608.586L250.414,568L249,566.586L208.414,526
			L249,485.414L289.586,526l1.414,1.414L331.586,568L291,608.586z M373.586,442L333,482.586L292.414,442L333,401.414L373.586,442z
			 M249,317.414L289.586,358l1.414,1.414L331.586,400L291,440.586L250.414,400L249,398.586L208.414,358L249,317.414z M79.586,400
			L39,440.586L-1.586,400L39,359.414L79.586,400z M79.586,316L39,356.586L-1.586,316L39,275.414L79.586,316z M124.414,106
			L123,104.586L82.414,64L123,23.414L163.586,64L165,65.414L205.586,106L165,146.586L124.414,106z M499.586,232L459,272.586
			L418.414,232L459,191.414L499.586,232z M1173,737.414L1213.586,778L1173,818.586L1132.414,778L1173,737.414z M1174.414,568
			L1215,527.414L1255.586,568L1215,608.586L1174.414,568z M837,734.586L796.414,694L837,653.414L877.586,694L837,734.586z
			 M879,692.586L838.414,652L837,650.586L796.414,610L837,569.414L877.586,610l1.414,1.414L919.586,652L879,692.586z M919.586,568
			l1.414,1.414L961.586,610L921,650.586L880.414,610L879,608.586L838.414,568L879,527.414L919.586,568z M502.414,148L543,107.414
			l1.414-1.414L585,65.414L625.586,106l1.414,1.414L667.586,148L627,188.586L586.414,148L585,146.586L583.586,148L543,188.586
			L502.414,148z M544.414,190L585,149.414L625.586,190L585,230.586L544.414,190z M586.414,232L627,191.414L667.586,232L627,272.586
			L586.414,232z M753,398.586L712.414,358L711,356.586L670.414,316L669,314.586L628.414,274L669,233.414L709.586,274l1.414,1.414
			L751.586,316l1.414,1.414L793.586,358L753,398.586z M837,398.586L796.414,358L837,317.414L877.586,358L837,398.586z M922.414,400
			L963,359.414L1003.586,400L963,440.586L922.414,400z M964.414,442L1005,401.414L1045.586,442L1005,482.586L964.414,442z
			 M1087.586,484L1047,524.586L1006.414,484L1047,443.414L1087.586,484z M1047,440.586L1006.414,400L1047,359.414L1087.586,400
			L1047,440.586z M1129.586,190l1.414,1.414L1171.586,232L1131,272.586L1090.414,232l-1.414-1.414L1048.414,190L1089,149.414
			L1129.586,190z M1087.586,148L1047,188.586L1006.414,148L1047,107.414L1087.586,148z M1381.586,190L1341,230.586L1300.414,190
			L1341,149.414L1381.586,190z M1257,62.586L1216.414,22L1257-18.586L1297.586,22L1257,62.586z"/>
		
			<rect x="-12.698" y="84" transform="matrix(0.7071 -0.7071 0.7071 0.7071 -54.832 37.6238)" style="fill:#231F20;" width="61.397" height="2"/>
		
			<rect x="143" y="54.302" transform="matrix(0.7071 -0.7071 0.7071 0.7071 -17.9275 126.7193)" style="fill:#231F20;" width="2" height="61.397"/>
		<polygon style="fill:#231F20;" points="627,149.414 628.414,148 586.414,106 585,104.586 583.586,106 541.586,148 543,149.414 
			585,107.414 		"/>
		<polygon style="fill:#231F20;" points="1426.414,106 1425,104.586 1384.414,64 1383,62.586 1341,20.586 1339.586,22 1381.586,64 
			1383,65.414 1423.586,106 1383,146.586 1342.414,106 1341,104.586 1299,62.586 1297.586,64 1339.586,106 1341,107.414 
			1381.586,148 1383,149.414 1425,191.414 1426.414,190 1384.414,148 1425,107.414 		"/>
		
			<rect x="101" y="138.302" transform="matrix(0.7071 -0.7071 0.7071 0.7071 -89.6259 121.6238)" style="fill:#231F20;" width="2" height="61.397"/>
		<polygon style="fill:#231F20;" points="249,146.586 247.586,148 289.586,190 291,191.414 292.414,190 334.414,148 333,146.586 
			291,188.586 		"/>
		
			<rect x="815" y="138.302" transform="matrix(0.7071 -0.7071 0.7071 0.7071 119.4998 626.4981)" style="fill:#231F20;" width="2" height="61.397"/>
		
			<rect x="1109" y="180.302" transform="matrix(0.7071 -0.7071 0.7071 0.7071 175.9119 846.689)" style="fill:#231F20;" width="2" height="61.397"/>
		<polygon style="fill:#231F20;" points="963,272.586 961.586,274 963,275.414 1005,317.414 1006.414,316 964.414,274 1005,233.414 
			1006.414,232 1005,230.586 963,188.586 961.586,190 1003.586,232 		"/>
		<path style="fill:#231F20;" d="M1383,230.586l-1.414,1.414L1341,272.586L1300.414,232l-1.414-1.414L1258.414,190l-1.414-1.414
			L1216.414,148L1257,107.414l42,42l1.414-1.414l-42-42l-1.414-1.414l-1.414,1.414L1215,146.586l-1.414,1.414L1173,188.586
			L1132.414,148L1173,107.414l1.414-1.414L1215,65.414l1.414-1.414L1215,62.586L1174.414,22L1173,20.586L1171.586,22L1131,62.586
			L1090.414,22L1089,20.586L1087.586,22L1047,62.586l-42-42L1003.586,22l42,42l1.414,1.414l42,42l1.414-1.414l-42-42L1089,23.414
			L1129.586,64l1.414,1.414l1.414-1.414L1173,23.414L1213.586,64L1173,104.586l-1.414,1.414L1131,146.586l-1.414,1.414l1.414,1.414
			L1171.586,190l1.414,1.414L1213.586,232l1.414,1.414l1.414-1.414L1257,191.414L1297.586,232L1257,272.586l-1.414,1.414
			l1.414,1.414L1297.586,316l1.414,1.414L1339.586,358L1299,398.586l-1.414,1.414l1.414,1.414L1339.586,442L1299,482.586
			L1258.414,442l-1.414-1.414l-1.414,1.414L1215,482.586l-1.414,1.414L1173,524.586l-1.414,1.414L1131,566.586L1090.414,526
			L1131,485.414l1.414-1.414l42-42l-1.414-1.414l-42,42l-42-42l-1.414,1.414l42,42L1089,524.586l-1.414,1.414l1.414,1.414
			L1129.586,568l1.414,1.414L1171.586,610L1131,650.586L1090.414,610l-1.414-1.414L1048.414,568l-1.414-1.414L1006.414,526
			l-1.414-1.414l-1.414,1.414L963,566.586L922.414,526L921,524.586L880.414,484L921,443.414l42,42l1.414-1.414l-42-42L921,440.586
			L880.414,400L879,398.586L877.586,400l-42,42l1.414,1.414l42-42L919.586,442L879,482.586L877.586,484l1.414,1.414L919.586,526
			l1.414,1.414L961.586,568l1.414,1.414l1.414-1.414L1005,527.414L1045.586,568l1.414,1.414L1087.586,610l1.414,1.414L1129.586,652
			l1.414,1.414l1.414-1.414L1173,611.414l1.414-1.414l-1.414-1.414L1132.414,568L1173,527.414l1.414-1.414L1215,485.414l1.414-1.414
			L1257,443.414L1297.586,484l1.414,1.414L1339.586,526L1299,566.586l-42-42l-1.414,1.414l42,42l1.414,1.414L1339.586,610
			L1299,650.586l-42-42l-1.414,1.414l42,42L1257,692.586L1216.414,652l-1.414-1.414l-1.414,1.414L1173,692.586l-1.414,1.414l-42,42
			l1.414,1.414l42-42L1213.586,736l1.414,1.414L1255.586,778l1.414,1.414l42,42l1.414-1.414l-42-42l-1.414-1.414L1216.414,736
			L1257,695.414L1297.586,736l1.414,1.414l42,42l1.414-1.414l-42-42l-1.414-1.414L1258.414,694L1299,653.414L1339.586,694
			l1.414,1.414l42,42l1.414-1.414l-42-42L1383,653.414l42,42l1.414-1.414l-42-42l-1.414-1.414l-1.414,1.414L1341,692.586
			L1300.414,652L1341,611.414l1.414-1.414l-1.414-1.414L1300.414,568L1341,527.414L1381.586,568l1.414,1.414l42,42l1.414-1.414
			l-42-42l-1.414-1.414L1342.414,526l-1.414-1.414L1300.414,484L1341,443.414l1.414-1.414L1383,401.414l42,42l1.414-1.414l-42-42
			l-1.414-1.414L1342.414,358l-1.414-1.414L1300.414,316l-1.414-1.414L1258.414,274L1299,233.414L1339.586,274l1.414,1.414l42,42
			l1.414-1.414l-42-42L1383,233.414l42,42l1.414-1.414l-42-42L1383,230.586z M1215,230.586L1174.414,190L1215,149.414L1255.586,190
			L1215,230.586z M1215,734.586L1174.414,694L1215,653.414L1255.586,694L1215,734.586z M1381.586,400L1341,440.586L1300.414,400
			L1341,359.414L1381.586,400z"/>
		<polygon style="fill:#231F20;" points="711,314.586 669,272.586 667.586,274 709.586,316 711,317.414 753,359.414 754.414,358 
			712.414,316 		"/>
		<polygon style="fill:#231F20;" points="1426.414,316 1425,314.586 1383,272.586 1381.586,274 1423.586,316 1383,356.586 
			1342.414,316 1341,314.586 1299,272.586 1297.586,274 1339.586,316 1341,317.414 1381.586,358 1383,359.414 1425,401.414 
			1426.414,400 1384.414,358 1425,317.414 		"/>
		
			<rect x="269" y="348.302" transform="matrix(0.7071 -0.7071 0.7071 0.7071 -188.9123 301.9254)" style="fill:#231F20;" width="2" height="61.397"/>
		<polygon style="fill:#231F20;" points="1383,440.586 1381.586,442 1341,482.586 1339.586,484 1341,485.414 1381.586,526 
			1383,527.414 1425,569.414 1426.414,568 1384.414,526 1383,524.586 1342.414,484 1383,443.414 1425,485.414 1426.414,484 
			1384.414,442 		"/>
		
			<rect x="-12.698" y="504" transform="matrix(0.7071 -0.7071 0.7071 0.7071 -351.8168 160.639)" style="fill:#231F20;" width="61.397" height="2"/>
		
			<rect x="731" y="474.302" transform="matrix(0.7071 -0.7071 0.7071 0.7071 -142.6911 665.5132)" style="fill:#231F20;" width="2" height="61.397"/>
		
			<rect x="1403" y="474.302" transform="matrix(0.7071 -0.7071 0.7071 0.7071 54.1332 1140.689)" style="fill:#231F20;" width="2" height="61.397"/>
		
			<rect x="269" y="516.302" transform="matrix(0.7071 -0.7071 0.7071 0.7071 -307.7062 351.1314)" style="fill:#231F20;" width="2" height="61.397"/>
		
			<rect x="899" y="558.302" transform="matrix(0.7071 -0.7071 0.7071 0.7071 -152.882 808.9102)" style="fill:#231F20;" width="2" height="61.397"/>
		
			<rect x="269" y="600.302" transform="matrix(0.7071 -0.7071 0.7071 0.7071 -367.1032 375.7345)" style="fill:#231F20;" width="2" height="61.397"/>
		
			<rect x="395" y="600.302" transform="matrix(0.7071 -0.7071 0.7071 0.7071 -330.1987 464.8299)" style="fill:#231F20;" width="2" height="61.397"/>
		
			<rect x="857" y="600.302" transform="matrix(0.7071 -0.7071 0.7071 0.7071 -194.882 791.5132)" style="fill:#231F20;" width="2" height="61.397"/>
		<polygon style="fill:#231F20;" points="1383,608.586 1341,566.586 1339.586,568 1381.586,610 1339.586,652 1341,653.414 
			1383,611.414 1425,653.414 1426.414,652 1384.414,610 		"/>
		<polygon style="fill:#231F20;" points="39,653.414 79.586,694 37.586,736 39,737.414 81,695.414 82.414,694 81,692.586 
			40.414,652 39,650.586 -3,608.586 -4.414,610 37.586,652 		"/>
		<polygon style="fill:#231F20;" points="1383,692.586 1381.586,694 1423.586,736 1383,776.586 1342.414,736 1341,734.586 
			1299,692.586 1297.586,694 1339.586,736 1341,737.414 1381.586,778 1341,818.586 1300.414,778 1299,776.586 1257,734.586 
			1255.586,736 1297.586,778 1299,779.414 1339.586,820 1341,821.414 1342.414,820 1383,779.414 1384.414,778 1425,737.414 
			1426.414,736 1425,734.586 		"/>
		
			<rect x="185" y="726.302" transform="matrix(0.7071 -0.7071 0.7071 0.7071 -480.8017 353.242)" style="fill:#231F20;" width="2" height="61.397"/>
		<path style="fill:#231F20;" d="M375,737.414l1.414-1.414L375,734.586L334.414,694L333,692.586L331.586,694L291,734.586l-42-42
			L247.586,694l42,42L249,776.586L208.414,736L207,734.586L166.414,694L165,692.586L124.414,652L123,650.586L82.414,610L123,569.414
			L163.586,610l1.414,1.414l42,42l1.414-1.414l-42-42L165,608.586L124.414,568L123,566.586L82.414,526L123,485.414l1.414-1.414
			L165,443.414l42,42l1.414-1.414l-42-42L207,401.414L247.586,442l1.414,1.414L289.586,484l1.414,1.414l42,42l1.414-1.414l-42-42
			L291,482.586L250.414,442L249,440.586L208.414,400L207,398.586L205.586,400L165,440.586L124.414,400L165,359.414l1.414-1.414
			L165,356.586l-42-42L121.586,316l42,42L123,398.586l-42-42L79.586,358l42,42l1.414,1.414L163.586,442L123,482.586l-42-42
			L79.586,442l42,42L81,524.586L79.586,526L81,527.414L121.586,568L81,608.586l-42-42L37.586,568l42,42L81,611.414L121.586,652
			l1.414,1.414L163.586,694L123,734.586L121.586,736L81,776.586L79.586,778L39,818.586l-42-42L-4.414,778l42,42L39,821.414
			L40.414,820L81,779.414l42,42l1.414-1.414l-42-42L123,737.414L163.586,778l1.414,1.414L205.586,820l1.414,1.414l1.414-1.414
			L249,779.414l1.414-1.414L291,737.414l1.414-1.414L333,695.414L373.586,736L333,776.586L331.586,778l-42,42l1.414,1.414l42-42
			l42,42l1.414-1.414l-42-42L375,737.414z M207,818.586L166.414,778L165,776.586L124.414,736L165,695.414L205.586,736l1.414,1.414
			L247.586,778L207,818.586z"/>
		<path style="fill:#231F20;" d="M795,737.414l42,42l1.414-1.414l-42-42L795,734.586L754.414,694L795,653.414l1.414-1.414
			L795,650.586L754.414,610L795,569.414l1.414-1.414L837,527.414l1.414-1.414L837,524.586L796.414,484L795,482.586L754.414,442
			l42-42L795,398.586l-42,42L712.414,400L711,398.586L709.586,400L669,440.586L628.414,400L627,398.586L586.414,358L627,317.414
			l42,42l1.414-1.414l-42-42L627,314.586L586.414,274L585,272.586L544.414,232L543,230.586l-42-42L499.586,190l42,42L501,272.586
			L499.586,274L459,314.586L457.586,316L417,356.586L415.586,358L375,398.586L334.414,358L375,317.414l1.414-1.414L417,275.414
			l1.414-1.414L417,272.586l-42-42L373.586,232l42,42L375,314.586L373.586,316L333,356.586L292.414,316L291,314.586L250.414,274
			L249,272.586L208.414,232L207,230.586L205.586,232L165,272.586L124.414,232L165,191.414l1.414-1.414L165,188.586L124.414,148
			L123,146.586L82.414,106L81,104.586L79.586,106L39,146.586L37.586,148L39,149.414L79.586,190L39,230.586L37.586,232L39,233.414
			l42,42L82.414,274l-42-42L81,191.414L121.586,232l1.414,1.414L163.586,274l1.414,1.414L205.586,316l1.414,1.414l1.414-1.414
			L249,275.414L289.586,316l1.414,1.414L331.586,358l1.414,1.414L373.586,400l1.414,1.414L415.586,442L375,482.586L373.586,484
			l1.414,1.414L415.586,526l1.414,1.414L457.586,568L417,608.586L376.414,568L375,566.586L373.586,568L333,608.586L331.586,610
			l1.414,1.414L373.586,652l1.414,1.414L415.586,694l1.414,1.414l1.414-1.414L459,653.414L499.586,694l1.414,1.414L541.586,736
			L501,776.586L460.414,736L459,734.586L457.586,736L417,776.586L415.586,778l1.414,1.414L457.586,820l1.414,1.414l1.414-1.414
			L501,779.414L541.586,820l1.414,1.414l1.414-1.414l42-42L585,776.586l-42,42L502.414,778L543,737.414l1.414-1.414l42-42
			L585,692.586l-42,42L502.414,694L501,692.586L460.414,652L501,611.414l1.414-1.414L501,608.586L460.414,568L501,527.414l42,42
			l1.414-1.414l-42-42L501,524.586l-42-42L457.586,484l42,42L459,566.586L418.414,526L417,524.586L376.414,484L417,443.414
			l1.414-1.414L459,401.414L499.586,442l1.414,1.414l42,42l1.414-1.414l-42-42L501,440.586L460.414,400L501,359.414L541.586,400
			l1.414,1.414L583.586,442l1.414,1.414l42,42l1.414-1.414l-42-42L585,440.586L544.414,400L543,398.586L502.414,358L543,317.414
			L583.586,358l1.414,1.414L625.586,400l1.414,1.414L667.586,442l1.414,1.414l1.414-1.414L711,401.414L751.586,442l1.414,1.414
			L793.586,484l1.414,1.414L835.586,526L795,566.586L793.586,568L753,608.586l-42-42L709.586,568l42,42l1.414,1.414L793.586,652
			L753,692.586L712.414,652L711,650.586L709.586,652L669,692.586L628.414,652L627,650.586l-42-42L583.586,610l42,42l1.414,1.414
			L667.586,694l1.414,1.414L709.586,736l1.414,1.414L751.586,778l1.414,1.414l42,42l1.414-1.414l-42-42L795,737.414z M82.414,190
			L81,188.586L40.414,148L81,107.414L121.586,148l1.414,1.414L163.586,190L123,230.586L82.414,190z M207,314.586L166.414,274
			L207,233.414L247.586,274L207,314.586z M459,818.586L418.414,778L459,737.414L499.586,778L459,818.586z M417,692.586L376.414,652
			L375,650.586L334.414,610L375,569.414L415.586,610l1.414,1.414L457.586,652L417,692.586z M499.586,610L459,650.586L418.414,610
			L459,569.414L499.586,610z M543,233.414L583.586,274L543,314.586L502.414,274L543,233.414z M417,440.586L376.414,400L417,359.414
			L457.586,400L417,440.586z M459,398.586L418.414,358L459,317.414L499.586,358L459,398.586z M501,356.586L460.414,316L501,275.414
			L541.586,316L501,356.586z M544.414,316L585,275.414L625.586,316L585,356.586L544.414,316z M670.414,694L711,653.414L751.586,694
			L711,734.586L670.414,694z M712.414,736L753,695.414L793.586,736L753,776.586L712.414,736z"/>
		
			<rect x="143" y="768.302" transform="matrix(0.7071 -0.7071 0.7071 0.7071 -522.8017 335.8451)" style="fill:#231F20;" width="2" height="61.397"/>
		<polygon style="fill:#231F20;" points="292.414,778 334.414,736 333,734.586 291,776.586 289.586,778 247.586,820 249,821.414 
			291,779.414 		"/>
		<polygon style="fill:#231F20;" points="669,776.586 667.586,778 625.586,820 627,821.414 669,779.414 711,821.414 712.414,820 
			670.414,778 		"/>
		<path style="fill:#231F20;" d="M711,776.586L670.414,736L669,734.586L628.414,694L627,692.586L586.414,652L585,650.586
			L544.414,610L585,569.414L625.586,610l1.414,1.414L667.586,652l1.414,1.414l1.414-1.414L711,611.414l42,42l1.414-1.414l-42-42
			L711,608.586L670.414,568L711,527.414L751.586,568l1.414,1.414l1.414-1.414L795,527.414l1.414-1.414L795,524.586L754.414,484
			L753,482.586L712.414,442L711,440.586L709.586,442L669,482.586L628.414,442L627,440.586L586.414,400L585,398.586l-42-42
			L541.586,358l42,42l1.414,1.414L625.586,442l1.414,1.414L667.586,484L627,524.586L586.414,484L585,482.586L544.414,442
			L543,440.586l-42-42L499.586,400l42,42l1.414,1.414L583.586,484L543,524.586L502.414,484L501,482.586L460.414,442L459,440.586
			L457.586,442L417,482.586L415.586,484l1.414,1.414l42,42l1.414-1.414l-42-42L459,443.414L499.586,484l1.414,1.414L541.586,526
			l1.414,1.414L583.586,568L543,608.586l-42-42L499.586,568l42,42L501,650.586L499.586,652l1.414,1.414L541.586,694l1.414,1.414
			l1.414-1.414L585,653.414L625.586,694L585,734.586L583.586,736l-42,42l1.414,1.414l42-42L625.586,778l-42,42l1.414,1.414l42-42
			l1.414-1.414L669,737.414L709.586,778l1.414,1.414l42,42l1.414-1.414l-42-42L711,776.586z M586.414,568L627,527.414L667.586,568
			L627,608.586L586.414,568z M709.586,610L669,650.586L628.414,610L669,569.414L709.586,610z M711,443.414L751.586,484l1.414,1.414
			L793.586,526L753,566.586L712.414,526L711,524.586L670.414,484L711,443.414z M669,485.414L709.586,526L669,566.586L628.414,526
			L669,485.414z M544.414,526L585,485.414L625.586,526L585,566.586L544.414,526z M543,692.586L502.414,652L543,611.414L583.586,652
			L543,692.586z M627,776.586L586.414,736L627,695.414L667.586,736L627,776.586z"/>
		
			<rect x="983" y="768.302" transform="matrix(0.7071 -0.7071 0.7071 0.7071 -276.7714 929.8148)" style="fill:#231F20;" width="2" height="61.397"/>
		<path style="fill:#231F20;" d="M1090.414,778l-1.414-1.414L1048.414,736L1089,695.414l1.414-1.414l-1.414-1.414L1048.414,652
			l-1.414-1.414L1006.414,610l-1.414-1.414l-1.414,1.414L963,650.586L961.586,652l-42,42l1.414,1.414l42-42l1.414-1.414
			L1005,611.414L1045.586,652l1.414,1.414L1087.586,694L1047,734.586L1006.414,694l-1.414-1.414l-1.414,1.414L963,734.586
			L961.586,736L921,776.586l-42-42L877.586,736l42,42l1.414,1.414l42,42l1.414-1.414l-42-42L963,737.414L1003.586,778l1.414,1.414
			L1045.586,820l1.414,1.414l1.414-1.414L1089,779.414L1090.414,778z M964.414,736L1005,695.414L1045.586,736L1005,776.586
			L964.414,736z M1047,818.586L1006.414,778L1047,737.414L1087.586,778L1047,818.586z"/>
		
			<rect x="1373.302" y="798" transform="matrix(0.7071 -0.7071 0.7071 0.7071 -153.7562 1226.7996)" style="fill:#231F20;" width="61.397" height="2"/>
	</g>
</g>
</svg>
